<?xml version="1.0" encoding="utf-8"?>
<!-- Generator: Adobe Illustrator 16.0.4, SVG Export Plug-In . SVG Version: 6.00 Build 0)  -->
<!DOCTYPE svg PUBLIC "-//W3C//DTD SVG 1.1//EN" "http://www.w3.org/Graphics/SVG/1.1/DTD/svg11.dtd">
<svg version="1.1" id="Layer_1" xmlns="http://www.w3.org/2000/svg" xmlns:xlink="http://www.w3.org/1999/xlink" x="0px" y="0px"
	 width="50px" height="50px" viewBox="0 0 50 50" enable-background="new 0 0 50 50" xml:space="preserve">
<g>
	<path d="M34.717,29.195v-0.883v-5.3v-5.3c0-0.485-0.398-0.883-0.884-0.883H16.168c-0.486,0-0.885,0.396-0.885,0.883v5.3v5.3v0.883
		l-2.207,2.65c0,0.73,0.593,1.324,1.324,1.324H35.6c0.731,0,1.324-0.594,1.324-1.324L34.717,29.195z M26.768,32.729h-3.533
		c-0.123,0-0.221-0.098-0.221-0.221s0.098-0.221,0.221-0.221h3.533c0.121,0,0.221,0.098,0.221,0.221
		C26.986,32.631,26.889,32.729,26.768,32.729z M21.359,31.846l0.674-0.809h5.934l0.674,0.809H21.359z M33.473,27.633
		c0,0.426-0.347,0.771-0.77,0.771H17.297c-0.423,0-0.77-0.348-0.77-0.771v-9.24c0-0.426,0.347-0.771,0.77-0.771h15.406
		c0.423,0,0.77,0.347,0.77,0.771V27.633z"/>
	<path d="M28.738,25.028c-0.213-0.092-0.403-0.217-0.575-0.373c-0.123-0.111-0.228-0.242-0.313-0.385
		c-0.062-0.103-0.119-0.209-0.162-0.318s-0.069-0.227-0.098-0.34c-0.021-0.084-0.035-0.168-0.04-0.254
		c-0.007-0.188-0.004-0.373,0.04-0.558c0.037-0.151,0.083-0.296,0.151-0.434c0.167-0.335,0.411-0.595,0.733-0.785
		c0.022-0.017,0.047-0.031,0.075-0.049c-0.021-0.021-0.034-0.038-0.049-0.056c-0.173-0.215-0.382-0.391-0.618-0.528
		c-0.129-0.075-0.265-0.138-0.4-0.195c-0.08-0.034-0.166-0.055-0.25-0.073c-0.078-0.018-0.162-0.025-0.241-0.035
		c-0.209-0.025-0.416,0.004-0.619,0.043c-0.099,0.018-0.192,0.051-0.288,0.082c-0.079,0.023-0.156,0.055-0.232,0.082
		c-0.067,0.023-0.135,0.055-0.203,0.073c-0.104,0.029-0.211,0.056-0.317,0.077c-0.19,0.041-0.378,0.007-0.562-0.038
		c-0.086-0.021-0.168-0.053-0.252-0.08c-0.099-0.032-0.195-0.067-0.295-0.1c-0.086-0.028-0.172-0.062-0.261-0.08
		c-0.104-0.022-0.212-0.037-0.319-0.056c-0.229-0.036-0.455,0-0.678,0.06c-0.115,0.03-0.227,0.081-0.336,0.129
		c-0.176,0.074-0.333,0.183-0.479,0.302c-0.197,0.155-0.363,0.342-0.506,0.547c-0.097,0.136-0.179,0.276-0.232,0.434
		c-0.042,0.117-0.08,0.236-0.113,0.357c-0.025,0.096-0.049,0.191-0.062,0.289c-0.016,0.108-0.023,0.219-0.028,0.328
		c-0.006,0.133-0.008,0.266-0.004,0.396c0.005,0.125,0.017,0.25,0.03,0.373c0.014,0.117,0.031,0.234,0.052,0.352
		c0.016,0.084,0.038,0.166,0.06,0.249c0.031,0.12,0.061,0.241,0.1,0.358c0.045,0.135,0.095,0.269,0.15,0.398
		c0.074,0.174,0.151,0.347,0.239,0.515c0.153,0.289,0.332,0.566,0.532,0.828c0.134,0.176,0.275,0.344,0.445,0.488
		c0.196,0.17,0.412,0.297,0.674,0.344c0.227,0.039,0.437-0.008,0.643-0.086c0.104-0.041,0.204-0.086,0.307-0.129
		c0.172-0.074,0.354-0.119,0.541-0.137c0.227-0.021,0.448-0.016,0.666,0.049c0.121,0.035,0.24,0.08,0.356,0.129
		c0.166,0.068,0.327,0.145,0.508,0.174c0.248,0.039,0.47-0.018,0.683-0.135c0.191-0.104,0.355-0.244,0.498-0.408
		c0.14-0.162,0.271-0.332,0.396-0.506c0.127-0.176,0.248-0.355,0.354-0.543c0.129-0.23,0.24-0.473,0.359-0.71
		c0.014-0.027,0.003-0.046-0.021-0.059C28.762,25.032,28.749,25.032,28.738,25.028z"/>
	<path d="M25.355,20.627c0.154-0.05,0.299-0.122,0.437-0.211c0.194-0.127,0.36-0.284,0.497-0.473
		c0.143-0.192,0.251-0.404,0.322-0.633c0.052-0.168,0.084-0.338,0.072-0.531c0-0.038,0.002-0.092,0-0.146
		c-0.002-0.062-0.013-0.073-0.072-0.062c-0.127,0.027-0.258,0.049-0.381,0.095c-0.143,0.056-0.28,0.123-0.41,0.201
		c-0.301,0.178-0.534,0.422-0.709,0.723c-0.082,0.142-0.146,0.287-0.193,0.441c-0.021,0.073-0.04,0.151-0.05,0.229
		c-0.017,0.127-0.019,0.258-0.002,0.387c0.004,0.037,0.015,0.054,0.053,0.053C25.068,20.698,25.213,20.672,25.355,20.627z"/>
</g>
</svg>
