<svg xmlns="http://www.w3.org/2000/svg" xmlns:xlink="http://www.w3.org/1999/xlink" version="1.1" id="Your_Icon" x="0px" y="0px" width="100px" height="100px" viewBox="0 0 100 100" enable-background="new 0 0 100 100" xml:space="preserve">
<path fill="#000000" d="M65.48,42.969c0-8.442-6.866-15.309-15.306-15.309c-8.44,0-15.306,6.867-15.306,15.309v22.007h3.726v35.045  h10.346l0.001-27.261h2.467l-0.001,27.261h10.346V64.977h3.728V42.969z"/>
<path fill="#000000" d="M50.173,26.878c6.674,0,12.104-5.43,12.104-12.104c0-4.661-2.653-8.708-6.524-10.73  C55.869,2.602,55.481,1.031,53.495,0c0.19,2.154-3.51,2.289-6.209,3.027l0.01,0.004c-5.287,1.297-9.226,6.063-9.226,11.744  C38.07,21.449,43.499,26.878,50.173,26.878z M46.734,7.365c3.955,2.557,6.977-0.465,10.092,2.671  c0.957,1.339,1.526,2.972,1.526,4.739c0,4.51-3.669,8.178-8.178,8.178s-8.178-3.669-8.178-8.178  C41.995,11.494,43.941,8.667,46.734,7.365z"/>
<path fill="#000000" d="M49.591,14.358l-0.003-0.496h1.175v0.496c0,1.856,1.335,3.256,3.105,3.256c1.783,0,3.233-1.461,3.233-3.256  v-0.516c0.312-0.05,0.555-0.308,0.555-0.634c0-0.362-0.293-0.654-0.654-0.654h-0.404c-0.383-0.18-1.443-0.62-2.729-0.62  c-1.266,0-2.237,0.426-2.614,0.62h-2.162c-0.378-0.194-1.348-0.62-2.614-0.62c-1.289,0-2.367,0.441-2.751,0.62h-0.381  c-0.362,0-0.654,0.293-0.654,0.654c0,0.317,0.23,0.569,0.529,0.629v0.521c0,1.795,1.461,3.256,3.257,3.256  C48.253,17.614,49.591,16.214,49.591,14.358z M52.071,13.614c0.363-0.155,1.011-0.372,1.797-0.372c0.808,0,1.522,0.228,1.924,0.388  v0.728c0,1.074-0.864,1.947-1.924,1.947c-1.041,0-1.797-0.819-1.797-1.947V13.614z M44.529,14.358v-0.726  c0.408-0.161,1.13-0.39,1.949-0.39c0.788,0,1.436,0.218,1.798,0.373l0.006,0.742c0,1.11-0.776,1.947-1.804,1.947  C45.403,16.305,44.529,15.432,44.529,14.358z"/>
</svg>