<?xml version="1.0" encoding="utf-8"?>
<!-- Generator: Adobe Illustrator 17.0.2, SVG Export Plug-In . SVG Version: 6.00 Build 0)  -->
<!DOCTYPE svg PUBLIC "-//W3C//DTD SVG 1.1//EN" "http://www.w3.org/Graphics/SVG/1.1/DTD/svg11.dtd">
<svg version="1.1" id="Capa_1" xmlns="http://www.w3.org/2000/svg" xmlns:xlink="http://www.w3.org/1999/xlink" x="0px" y="0px"
	 width="64px" height="64px" viewBox="0 0 64 64" enable-background="new 0 0 64 64" xml:space="preserve">
<g>
	<path d="M32,2.167c-0.828,0-1.5,0.671-1.5,1.5v11.674h-8.37l-4.63,8.093v37.559h29V23.26l-4.641-7.919H33.5V3.667
		C33.5,2.838,32.828,2.167,32,2.167z M32,28.167c0.828,0,1.5-0.671,1.5-1.5v-2.96c1.082,0.551,1.833,1.664,1.833,2.96
		C35.333,28.504,33.838,30,32,30s-3.333-1.496-3.333-3.333c0-1.296,0.751-2.409,1.833-2.96v2.96
		C30.5,27.495,31.172,28.167,32,28.167z M40.141,18.341l3.359,5.733v33.918h-23V24.232l3.37-5.891h6.63v2.18
		c-2.769,0.676-4.833,3.171-4.833,6.146C25.667,30.159,28.508,33,32,33s6.333-2.841,6.333-6.333c0-2.975-2.064-5.47-4.833-6.146
		v-2.18H40.141z"/>
</g>
</svg>
