<?xml version="1.0" encoding="utf-8"?>
<!-- Generator: Adobe Illustrator 16.0.0, SVG Export Plug-In . SVG Version: 6.00 Build 0)  -->
<!DOCTYPE svg PUBLIC "-//W3C//DTD SVG 1.1//EN" "http://www.w3.org/Graphics/SVG/1.1/DTD/svg11.dtd">
<svg version="1.1" id="Layer_1" xmlns="http://www.w3.org/2000/svg" xmlns:xlink="http://www.w3.org/1999/xlink" x="0px" y="0px"
	 width="32px" height="32px" viewBox="0 0 32 32" enable-background="new 0 0 32 32" xml:space="preserve">
<g>
	<circle cx="13.558" cy="7.306" r="2.831"/>
	<path d="M11.231,16.26c0.943,0.656,2.062,0.984,3.347,0.984c0.701,0,2.918-0.482,3.447-0.651c0.596-0.206,0.894-0.494,1.074-0.846
		c0.221-0.592,0.115-1.217,0.115-1.217c-0.179-1.11-1.263-1.362-2.105-1.057c-1.257,0.449-2.972,0.836-4.007,0.126
		c-0.438-0.3-0.713-0.768-0.885-1.222c0.258-0.852,0.092-1.812-0.527-2.542c-0.969-1.14-2.576-1.142-3.818-0.309
		c-2.132,1.43-3.787,6.502-3.787,9.358c0.01,0.002-0.085,1.397,1.478,1.532c0.469,0.025,4.573,0.014,5.865,0.011
		c0.005,0.022,0.012,0.066,0.012,0.136c-0.005,1.182,0.001,5.48,0.004,7.474c0.001,0.565,0.46,1.022,1.026,1.022h1.016
		c0.273,0,0.534-0.106,0.726-0.301c0.192-0.193,0.3-0.453,0.3-0.727c-0.003-1.991-0.009-6.28-0.005-7.457
		c0.009-2.09-1.584-3.061-2.657-3.203l-0.208-0.014c-0.614,0.002-1.346,0.004-2.082,0.006c0.168-0.805,0.415-1.471,0.674-2.01
		C10.512,15.68,10.841,15.987,11.231,16.26z"/>
	<path d="M3.277,7.585c0-0.848-0.688-1.534-1.535-1.534c-0.848,0-1.536,0.687-1.536,1.534v15.339c0,0.792,0.601,1.441,1.371,1.521
		c0.001,0.004,0.003,0.007,0.005,0.007h0.55v3.585c0,0.564,0.451,1.023,1.015,1.023c0.565,0,1.015-0.457,1.015-1.023v-3.585H7.39
		v3.585c0,0.564,0.451,1.023,1.016,1.023c0.564,0,1.015-0.457,1.015-1.023v-3.585h0.989v-3.07H3.277V7.585z"/>
	<path d="M30.896,17.789c-0.235-1.207-1.008-2.223-2.062-2.78v-0.968h1.457V7.292l-5.567-1.996V4.307h-2.031v10.256h2.031v-0.521
		h1.041v0.696c-1.379,0.439-2.428,1.607-2.709,3.052h-6.488c-0.565,0-1.023,0.476-1.023,1.041s0.458,1.041,1.023,1.041h2.063v9.214
		h11.244v-9.214h1.007c0.565,0,1.023-0.476,1.023-1.041C31.908,18.27,31.456,17.796,30.896,17.789z"/>
</g>
</svg>
