<svg xmlns="http://www.w3.org/2000/svg" xmlns:xlink="http://www.w3.org/1999/xlink" version="1.1" id="Layer_1" x="0px" y="0px" width="100.0px" height="100px" viewBox="0 0 216 216" enable-background="new 0 0 216 216" xml:space="preserve">
<g>
	<path fill="#000000" d="M185.797,136.484c-0.224,0.622-0.899,0.945-1.512,0.716c-0.613-0.224-0.927-0.914-0.703-1.539   l10.799-30.199c0.222-0.622,0.897-0.944,1.51-0.717c0.611,0.229,0.927,0.917,0.703,1.541L185.797,136.484z"/>
	<path fill="#000000" d="M188.548,140.141c-0.537-0.372-0.68-1.12-0.315-1.668l17.327-26.107c0.366-0.547,1.098-0.693,1.637-0.32   c0.539,0.371,0.68,1.119,0.315,1.669l-17.327,26.104C189.818,140.367,189.087,140.514,188.548,140.141z"/>
	<path fill="#000000" d="M16.7,63.073c20.887-2.105,32.982,4.384,35.947,19.29c2.379,11.957-3.416,18.954-9.016,25.724   c-5.355,6.464-10.415,12.571-9.038,23.325c2.578,20.16,26.08,18.23,27.081,18.137l14.131-0.006   c-7.599-3.679-14.095-10.172-14.095-21.632c0-27.621,27.101-36.028,47.132-30.022c7.067,2.116,18.683,8.277,30.756,15.354   c-0.341-1.463-0.541-2.979-0.541-4.547c0-10.851,8.63-19.647,19.274-19.647c10.648,0,19.279,8.796,19.279,19.647   c0,9.157-6.159,16.828-14.478,19.006c12.691,8.093,22.302,14.618,22.302,14.618s5.029,3.735,4.009,7.828   c-0.782,3.135-3.553,4.184-12.037,4.184H99.415c0,0-2.749,0.079-6.75-0.331c-0.342,0.198-0.719,0.342-1.143,0.342H61.89   c-9.808,0.941-29.437-2.496-31.971-22.308c-1.644-12.854,4.598-20.394,10.106-27.048c5.326-6.432,9.93-11.988,8.001-21.669   C45.59,71.063,35.494,66.005,17.165,67.855c-1.296,0.129-2.452-0.834-2.58-2.154C14.458,64.38,15.402,63.203,16.7,63.073z"/>
</g>
</svg>