<svg xmlns="http://www.w3.org/2000/svg" xmlns:xlink="http://www.w3.org/1999/xlink" version="1.1" id="Your_Icon" x="0px" y="0px" width="100px" height="100px" viewBox="0 0 100 100" enable-background="new 0 0 100 100" xml:space="preserve">
<path fill="#000000" d="M48.693,53.529"/>
<g>
	<path fill="#000000" d="M43.885,47.752c-1.281,0-2.324-1.047-2.324-2.332c0-1.281,1.043-2.324,2.324-2.324   c1.285,0,2.332,1.043,2.332,2.324C46.217,46.705,45.17,47.752,43.885,47.752z M43.885,44.697c-0.398,0-0.723,0.324-0.723,0.723   c0,0.402,0.324,0.73,0.723,0.73c0.402,0,0.73-0.328,0.73-0.73C44.615,45.021,44.287,44.697,43.885,44.697z"/>
	<path fill="#000000" d="M55.947,47.752c-1.285,0-2.332-1.047-2.332-2.332c0-1.281,1.047-2.324,2.332-2.324s2.328,1.043,2.328,2.324   C58.275,46.705,57.232,47.752,55.947,47.752z M55.947,44.697c-0.402,0-0.73,0.324-0.73,0.723c0,0.402,0.328,0.73,0.73,0.73   c0.406,0,0.727-0.32,0.727-0.73C56.674,45.021,56.35,44.697,55.947,44.697z"/>
</g>
<path fill="#000000" d="M51.732,51.904c0-0.953-0.777-1.727-1.73-1.727c-0.961,0-1.734,0.773-1.734,1.727  c0,0.961,0.773,1.734,1.734,1.734C50.955,53.639,51.732,52.865,51.732,51.904z"/>
<polygon fill="#000000" points="61.256,53.592 55.361,52.705 55.604,51.123 61.498,52.01 "/>
<rect x="54.292" y="54.283" transform="matrix(0.916 0.4012 -0.4012 0.916 26.7878 -17.749)" fill="#000000" width="2.96" height="1.602"/>
<polygon fill="#000000" points="38.537,53.592 38.295,52.01 44.189,51.123 44.432,52.705 "/>
<rect x="43.22" y="53.604" transform="matrix(0.3998 0.9166 -0.9166 0.3998 76.9121 -7.2886)" fill="#000000" width="1.602" height="2.96"/>
<path fill="#000000" d="M69.732,46.568c0-4.406-1.891-8.395-4.902-11.488c0.742-1.09,1.172-2.398,1.172-3.785  c0-3.574-2.711-6.484-6.039-6.484c-2.715,0-4.996,1.922-5.773,4.566c-1.352-0.262-2.746-0.418-4.188-0.418  c-1.477,0-2.906,0.172-4.293,0.449c-0.758-2.652-3.035-4.598-5.746-4.598c-3.352,0-6.082,2.91-6.082,6.484  c0,1.402,0.457,2.746,1.227,3.855c-2.977,3.082-4.84,7.043-4.84,11.418c0,6.293,2.855,11.207,7.715,14.148  c-1.773,3.832-3.305,8.414-4.523,13.762l3.117,0.711c1.168-5.105,2.617-9.465,4.289-13.082c2.656,1.035,5.695,1.648,9.133,1.648  c3.973,0,7.453-0.84,10.395-2.27c1.801,3.625,3.367,8.094,4.629,13.398l3.109-0.742c-1.344-5.648-3.027-10.434-4.992-14.316  C67.268,56.803,69.732,52.225,69.732,46.568z M59.963,28.014c1.539,0,2.836,1.5,2.836,3.281c0,0.598-0.18,1.152-0.441,1.656  c-1.539-1.113-3.219-2.055-5.086-2.719C57.662,28.951,58.705,28.014,59.963,28.014z M39.963,28.014c1.227,0,2.266,0.965,2.652,2.254  c-1.855,0.672-3.523,1.629-5.051,2.746c-0.285-0.52-0.48-1.094-0.48-1.719C37.084,29.486,38.373,28.014,39.963,28.014z   M33.471,46.568c0-7.945,7.414-14.406,16.531-14.406c9.113,0,16.527,6.461,16.527,14.406c0,8.496-6.488,13.984-16.531,13.984  C39.803,60.553,33.471,55.193,33.471,46.568z"/>
</svg>