<svg xmlns="http://www.w3.org/2000/svg" xmlns:xlink="http://www.w3.org/1999/xlink" version="1.1" id="Layer_1" x="0px" y="0px" width="100px" height="100px" viewBox="0 0 100 100" enable-background="new 0 0 100 100" xml:space="preserve">
<g>
	<g>
		<circle cx="51.58" cy="10.115" r="9.115"/>
		<path d="M79.096,92.863L79.096,92.863v-0.002c-0.1-0.527-8.504-23.919-8.504-23.919L57.896,56.014c0,0,0-20.281,0-26.242    s-10.813-9.854-12.078-8.98C44.988,21.365,25.97,33.169,25.97,33.169l-2.017,20.082c-0.025,0.185-0.042,0.37-0.042,0.561    c0,2.266,1.837,4.103,4.103,4.103s4.103-1.837,4.103-4.103l1.697-15.293l9.45-5.503v22.922l17.341,16.721l8.85,22.927l0,0    c0.723,1.893,2.551,3.239,4.697,3.239c2.779,0,5.033-2.254,5.033-5.031C79.186,93.475,79.186,93.334,79.096,92.863z"/>
		<path d="M22.017,89.604c-0.749,0.879-1.203,2.016-1.203,3.26c0,2.778,2.254,5.032,5.032,5.032c1.776,0,3.333-0.922,4.229-2.312    l15.391-19.91L50.2,65.208l-7.783-7.294l-5.753,11.739L22.017,89.604z"/>
		<path d="M60.141,40.145c0,0-0.154,11.303,0,11.07c0.135-0.203,5.691,4.408,7.121,5.6c0.105,0.099,0.215,0.19,0.33,0.277    c0.002,0,0.004,0.002,0.004,0.002l0,0c0.684,0.514,1.533,0.82,2.455,0.82c2.264,0,4.102-1.837,4.102-4.103    c0-1.527-0.83-2.469-2.076-3.563L60.141,40.145z"/>
	</g>
</g>
</svg>