<?xml version="1.0" encoding="utf-8"?>
<!-- Generator: Adobe Illustrator 15.0.0, SVG Export Plug-In . SVG Version: 6.00 Build 0)  -->
<!DOCTYPE svg PUBLIC "-//W3C//DTD SVG 1.1//EN" "http://www.w3.org/Graphics/SVG/1.1/DTD/svg11.dtd">
<svg version="1.1" id="Layer_1" xmlns="http://www.w3.org/2000/svg" xmlns:xlink="http://www.w3.org/1999/xlink" x="0px" y="0px"
	 width="26px" height="26px" viewBox="0 0 26 26" enable-background="new 0 0 26 26" xml:space="preserve">
<g>
	<path fill="#000000" d="M13.817,13.268c-0.162,0-0.281,0.011-0.361,0.022v3.453c0.076,0.004,0.167,0.004,0.241,0.004h0.001
		c0.504,0,0.883-0.146,1.146-0.438c0.283-0.312,0.427-0.78,0.427-1.395C15.271,13.853,14.755,13.268,13.817,13.268z"/>
	<path fill="#000000" d="M18,11H1c-0.551,0-1,0.449-1,1v6c0,0.551,0.449,1,1,1h17c0.551,0,1-0.449,1-1v-6C19,11.449,18.551,11,18,11
		z M5.432,15.354c-0.409,0.423-1.02,0.646-1.764,0.646c-0.087,0-0.164-0.003-0.232-0.009v1.858c0,0.088-0.071,0.159-0.159,0.159
		H2.139c-0.087,0-0.158-0.071-0.158-0.159v-5.611c0-0.076,0.055-0.141,0.129-0.155c0.422-0.079,0.953-0.121,1.582-0.121
		c0.742,0,1.285,0.163,1.658,0.497c0.377,0.326,0.595,0.85,0.595,1.434C5.944,14.5,5.763,15.02,5.432,15.354z M8.512,18.094
		c-0.628,0-1.229-0.197-1.522-0.379c-0.057-0.035-0.085-0.103-0.07-0.168l0.232-1.055c0.012-0.049,0.044-0.091,0.091-0.111
		c0.047-0.02,0.101-0.018,0.144,0.009c0.274,0.16,0.733,0.331,1.194,0.331c0.242,0,0.646-0.059,0.646-0.456
		c0-0.23-0.119-0.402-0.749-0.646c-0.998-0.397-1.503-1.015-1.503-1.834c0-1.097,0.854-1.863,2.08-1.863
		c0.527,0,0.988,0.104,1.369,0.306c0.064,0.033,0.098,0.107,0.08,0.178l-0.256,1.029c-0.012,0.048-0.045,0.088-0.091,0.107
		c-0.043,0.019-0.097,0.017-0.14-0.007c-0.167-0.093-0.517-0.25-0.979-0.25c-0.353,0-0.58,0.152-0.58,0.39
		c0,0.242,0.166,0.371,0.846,0.655c0.96,0.398,1.408,0.983,1.408,1.843C10.713,17.059,10.136,18.094,8.512,18.094z M15.915,17.29
		c-0.547,0.509-1.396,0.778-2.459,0.778c-0.628,0-1.068-0.048-1.327-0.087c-0.078-0.013-0.136-0.078-0.136-0.156v-5.576
		c0-0.076,0.056-0.143,0.131-0.156c0.461-0.083,1.02-0.13,1.573-0.13c0.982,0,1.657,0.199,2.188,0.645
		c0.599,0.499,0.916,1.282,0.916,2.265C16.802,16.167,16.319,16.901,15.915,17.29z"/>
	<path fill="#000000" d="M3.744,13.259c-0.143,0-0.242,0.006-0.309,0.015v1.414c0.06,0.007,0.132,0.009,0.226,0.009
		c0.526,0,0.828-0.277,0.828-0.761C4.489,13.376,4.084,13.259,3.744,13.259z"/>
</g>
<rect fill="none" width="26" height="26"/>
<path fill="#000000" d="M21.266,4.207c-0.244-0.24-0.494-0.484-0.74-0.732c-0.248-0.246-0.492-0.496-0.732-0.74
	C18.082,0.988,17.063,0,16,0H8C5.795,0,4,1.795,4,4v7.2h2V4c0-1.104,0.896-2,2-2l7.289-0.004C16.01,2.18,16,3.066,16,3.953V7
	c0,0.551,0.449,1,1,1h3c0.998,0,2,0.005,2,1v13c0,1.104-0.896,2-2,2H8c-1.104,0-2-0.896-2-2v-3.2H4V22c0,2.205,1.795,4,4,4h12
	c2.205,0,4-1.795,4-4V8C24,6.938,23.012,5.918,21.266,4.207z"/>
</svg>
