<svg xmlns="http://www.w3.org/2000/svg" xmlns:xlink="http://www.w3.org/1999/xlink" version="1.1" id="Layer_1" x="0px" y="0px" width="75px" height="75px" viewBox="0 0 75 75" enable-background="new 0 0 75 75" xml:space="preserve">
<path d="M47.608,63.726c0,0.449-0.946,2.938-2.64,3.835c-1.692,0.896-8.294,3.487-9.909,1.594l-4.531-5.577  c0,0-0.498-0.896-0.548-1.793c-0.052-0.937-0.197-1.674-0.004-2.19c0.194-0.519,0.552-2.093,1.996-1.644  c0,0-0.548-2.838,1.693-2.838c0,0-1.395-4.135,1.743-3.885c0,0-1.07-1.058-0.996-1.843c0,0,0.249-2.091,2.739-1.494  c0,0,1.294,0.598,2.989,2.093c1.693,1.493,2.787,2.339,2.988,2.688c0.104,0.185,0.347,0.672,0.59,1.172  c0.851,0.718,2.569,2.517,2.942,5.499c0.305,0.494,0.585,0.98,0.649,1.197C47.458,61.038,47.608,63.277,47.608,63.726z   M39.84,48.951c-0.113-0.205-0.244-0.439-0.398-0.711c-0.795-1.407-1.495-1.186-1.905-0.826  C37.856,47.579,38.722,48.057,39.84,48.951z M38.169,47.741C38.169,47.741,38.169,47.741,38.169,47.741  c-0.015,0-0.026,0.005-0.04,0.008c0.136,0.083,0.288,0.179,0.455,0.288C38.404,47.827,38.259,47.741,38.169,47.741z M44.116,25.035  c-2.9-0.029-3.684,2.442-3.778,2.79v0.745c0.099,1.15,0.502,2.049,1.2,2.639c1.082,0.913,2.534,0.799,2.55,0.798  c1.189-0.053,2.085-0.437,2.679-1.14c1.062-1.26,0.854-3.167,0.846-3.237C47.59,27.496,47.14,25.079,44.116,25.035z M53.534,23.989  c-0.696,2.191-0.498,3.586-0.498,3.586c-0.398,3.187-1.096,5.178-1.096,5.178c-0.796,1.992-1.295,1.096-1.295,1.096  c-0.1,4.382-1.527,7.17-1.527,7.17c-3.119,7.018-7.923,7.32-8.811,7.54c-0.104-0.187-0.217-0.387-0.347-0.614  c-0.522-0.928-1.126-1.399-1.792-1.399c-0.004,0-0.008,0-0.013,0c-0.59,0.007-1.021,0.384-1.273,0.688  c-0.195-0.028-0.385-0.049-0.564-0.049c-1.482,0-2.167,0.969-2.406,1.717c-0.016-0.006-0.032-0.01-0.048-0.016  c-0.847-0.298-4.382-2.738-5.179-4.232s-1.643-3.635-2.739-5.627c-1.095-1.991-1.194-4.73-1.194-4.73  c-0.486-0.208-0.917-0.803-1.24-1.38c-0.503-0.749-0.603-1.309-0.603-1.309c-0.249-1.643-0.847-2.739-0.847-2.739  c-0.149-0.597-0.547-4.033-0.647-5.925c-0.1-1.893,1.245-1.792,1.245-1.792v-1.046c0.1-5.577,0.388-6.438,0.598-6.971  c0.209-0.533,2.49-3.785,2.49-3.785c1.693-2.291,4.582-3.884,4.582-3.884c4.282-2.39,6.222-2.213,7.27-2.291  c1.048-0.078,4.19,0.798,5.478,1.494c1.288,0.695,4.887,4.218,5.676,5.278c0.792,1.061,1.998,3.172,2.689,4.88  c0.69,1.708,0.498,7.171,0.498,7.171c0.398-0.299,1.096,0,1.096,0C53.832,23.192,53.534,23.989,53.534,23.989z M43.986,38.629  c-0.717,0.465-2.396,1.693-5.584,1.893c-3.187,0.199-5.583-0.365-5.583-0.365s2.229,1.154,5.765,0.863  C42.538,40.692,43.986,38.629,43.986,38.629z M34.897,34.479c-0.012-0.185,0.012-0.332,0.033-0.428  c0.023-0.096,0.055-0.138,0.053-0.14l-0.046-0.038c0.003,0-0.048,0.04-0.104,0.138c-0.056,0.098-0.11,0.251-0.146,0.456  c-0.035,0.204-0.049,0.461,0.051,0.764c0.06,0.151,0.135,0.311,0.348,0.442c0.06,0.04,0.078,0.039,0.119,0.06l0.123,0.05  c0.063,0.03,0.131,0.044,0.197,0.086c0.266,0.138,0.542,0.342,0.813,0.585c0.133,0.125,0.269,0.255,0.398,0.386  c0.07,0.073,0.131,0.146,0.212,0.228c0.115,0.113,0.246,0.189,0.368,0.234c0.503,0.168,0.964,0.131,1.426,0.061  c0.229-0.04,0.458-0.092,0.69-0.175c0.288-0.092,0.436-0.267,0.63-0.412c0.178-0.15,0.335-0.303,0.503-0.454  c0.159-0.141,0.302-0.287,0.472-0.422l0.248-0.192c0.186-0.135,0.207-0.257,0.257-0.374c0.078-0.235,0.102-0.463,0.099-0.689  c-0.011-0.447-0.133-0.905-0.493-1.211c-0.165-0.114-0.3-0.205-0.41-0.33c-0.108-0.13-0.206-0.268-0.289-0.408  c-0.332-0.565-0.515-1.096-0.646-1.46c-0.127-0.367-0.185-0.583-0.185-0.583l-0.058,0.014c0,0,0.044,0.22,0.146,0.598  c0.107,0.376,0.253,0.919,0.56,1.532c0.076,0.152,0.171,0.308,0.283,0.462c0.119,0.156,0.286,0.286,0.429,0.4  c0.219,0.216,0.336,0.603,0.317,0.983c-0.007,0.191-0.041,0.391-0.108,0.56c-0.024,0.083-0.097,0.169-0.093,0.16l-0.281,0.192  c-0.182,0.13-0.359,0.288-0.541,0.434c-0.169,0.137-0.341,0.286-0.51,0.415c-0.168,0.112-0.343,0.27-0.496,0.291  c-0.188,0.055-0.396,0.089-0.6,0.11c-0.402,0.04-0.833,0.033-1.123-0.082c-0.074-0.022-0.123-0.059-0.157-0.086  c-0.066-0.062-0.139-0.143-0.21-0.213c-0.154-0.152-0.31-0.29-0.468-0.413c-0.316-0.248-0.647-0.452-0.995-0.581  c-0.082-0.038-0.177-0.056-0.264-0.079l-0.065-0.016l-0.016-0.003l-0.008-0.001l-0.003-0.001c0.046,0.013,0.01,0.003,0.021,0.006  l-0.029-0.007c-0.029-0.01-0.093-0.021-0.094-0.03c-0.054-0.017-0.155-0.107-0.202-0.204C34.949,34.892,34.909,34.663,34.897,34.479  z M51.376,23.176l-0.192-0.068l-2.907,3.949c-0.305-0.891-1.287-2.777-4.148-2.819c-0.029,0-0.057,0-0.086,0  c-2.599,0-3.771,1.739-4.232,2.746c-0.357-0.338-0.902-0.685-1.679-0.654c-0.74,0.031-1.326,0.394-1.715,0.732  c-0.36-1.062-1.389-2.837-4.245-2.853c-3.235-0.019-4.271,2.513-4.569,3.596l-4.235-5.958l-0.21,0.132l4.088,6.757h0.287  c0.173,1.306,0.96,4.074,4.503,4.074c0.001,0,0.003,0,0.005,0c3.868-0.002,4.471-4.007,4.552-4.786  c0.173-0.217,0.756-0.865,1.571-0.898c0.777-0.031,1.238,0.555,1.378,0.763l0.003,0.714c0.115,1.406,0.617,2.49,1.488,3.222  c1.056,0.886,2.344,0.986,2.869,0.986c0.141,0,0.228-0.007,0.238-0.008c1.407-0.062,2.497-0.542,3.24-1.426  c0.943-1.122,1.062-2.587,1.051-3.348l0.185,0.023L51.376,23.176z M32.167,25.005c-0.009,0-0.019,0-0.029,0  c-3.227,0-3.79,2.976-3.848,3.345c0.088,1.134,0.633,3.664,3.745,3.664c0.002,0,0.003,0,0.004,0c3.397-0.003,3.74-3.723,3.766-4.13  C35.774,27.619,35.385,25.022,32.167,25.005z"/>
</svg>