<svg xmlns="http://www.w3.org/2000/svg" xmlns:xlink="http://www.w3.org/1999/xlink" version="1.1" id="Layer_1" x="0px" y="0px" width="50px" height="50px" viewBox="0 0 50 50" enable-background="new 0 0 50 50" xml:space="preserve">
<g>
	<path fill-rule="evenodd" clip-rule="evenodd" fill="#000000" d="M22.687,20.938L22.687,20.938   c0.751,0.057,1.561,0.057,2.314,0.057c0.591,0,1.182,0,1.774-0.057l0,0c0.483,0,0.968,0,1.453,0l0,0   c0.86,0,1.722-0.055,2.527-0.107h0.054c0.699,0,1.398-0.055,2.151-0.109h-0.055c8.395-0.48,14.688-1.775,15.87-3.336   c0.16,0.215,0.214,0.379,0.214,0.537c0,1.885-7.151,3.447-17.051,3.984c-1.184,1.613-1.759,3.66-1.881,5.809   c-0.406,6.963,8.175,10.059,10.271,10.059c1.725,0,3.284-0.377,4.681-1.076c-1.722,1.35-3.82,2.207-6.134,2.207   c-2.528,0-13.511-1.848-13.392-12.533c0.017-1.508,0.266-3.012,0.752-4.303c-0.378,0-0.807,0-1.236,0c-0.592,0-1.237,0-1.831,0   c0.485,1.291,0.887,2.742,0.808,4.303c-0.519,10.207-10.705,12.533-13.286,12.533c-2.314,0-4.412-0.857-6.133-2.207   c1.399,0.699,3.013,1.076,4.68,1.076c2.098,0,10.252-3.02,10.276-10.059c0.005-2.205-0.701-4.195-1.887-5.861   C7.946,21.314,1.01,19.807,1.01,17.922c0-0.158,0.052-0.322,0.213-0.537c1.183,1.561,7.262,2.801,15.385,3.336l0,0   c0.699,0.055,1.454,0.055,2.153,0.109l0,0c0.807,0.053,1.613,0.053,2.475,0.107l0,0C21.719,20.938,22.202,20.938,22.687,20.938   L22.687,20.938z M25.001,19.328c13.232,0,23.989-1.828,23.989-4.09c0-2.311-10.757-4.143-23.989-4.143   c-13.233,0-23.991,1.832-23.991,4.143C1.01,17.5,11.768,19.328,25.001,19.328z"/>
</g>
</svg>