<?xml version="1.0" encoding="iso-8859-1"?>
<!-- Generator: Adobe Illustrator 17.0.0, SVG Export Plug-In . SVG Version: 6.00 Build 0)  -->
<!DOCTYPE svg PUBLIC "-//W3C//DTD SVG 1.1//EN" "http://www.w3.org/Graphics/SVG/1.1/DTD/svg11.dtd">
<svg version="1.1" id="Capa_1" xmlns="http://www.w3.org/2000/svg" xmlns:xlink="http://www.w3.org/1999/xlink" x="0px" y="0px"
	 width="64px" height="64px" viewBox="0 0 64 64" style="enable-background:new 0 0 64 64;" xml:space="preserve">
<path d="M23.882,15.682v12.377c0,1.105-0.672,2-1.5,2s-1.5-0.895-1.5-2V14.803c0-1.105-0.514-2.514-1.149-3.149
	s-1.149-0.254-1.149,0.851v11.01c0,1.105-0.699,1.44-1.56,0.749l-0.325-0.26c-0.862-0.691-1.56-2.146-1.56-3.251V8.078
	c0,0,0-0.228,0-0.509s-0.505-1.014-1.128-1.637s-1.128-0.233-1.128,0.872v21.256c0,1.105-0.672,2-1.5,2h-1.5h-3.31
	c-2.038,0-3.69,1.652-3.69,3.69v20.91c0,2.038,1.652,3.69,3.69,3.69h20.91c2.038,0,3.69-1.652,3.69-3.69v-0.06c0,0,0-0.672,0-1.5
	s0.895-1.5,2-1.5h26.626c1.105,0,2-0.895,2-2V15.682c0-1.105-0.895-2-2-2H25.882C24.777,13.682,23.882,14.578,23.882,15.682z
	 M29.172,51.599v3v0.06c0,0.932-0.758,1.69-1.69,1.69H6.572c-0.932,0-1.69-0.758-1.69-1.69v-20.91c0-0.932,0.758-1.69,1.69-1.69
	h3.31h3h8h3h3.6c0.932,0,1.69,0.758,1.69,1.69V51.599z M50.799,47.015H33.465c-1.104,0-2-0.896-2-2s0.896-2,2-2h17.333
	c1.104,0,2,0.896,2,2S51.903,47.015,50.799,47.015z M49.588,30.03c-1.049,0-1.9,0.895-1.9,2v5.71c0,1.419-1.151,2.57-2.57,2.57
	h-5.14c-1.419,0-2.57-1.151-2.57-2.57v-5.71c0-1.105-0.85-2-1.9-2h-1.9c-1.419,0-1.756-0.814-0.753-1.817l7.875-7.874
	c1.004-1.004,2.631-1.004,3.634,0l7.875,7.874c1.004,1.004,0.667,1.817-0.753,1.817C51.487,30.03,50.637,30.03,49.588,30.03z"/>
<path d="M52.601,3.484c-0.487-0.443-1.778-0.802-2.882-0.802H17.003c-1.105,0-1.641,0.359-1.198,0.802
	c0.443,0.443,1.697,0.802,2.802,0.802h32.876C52.587,4.286,53.088,3.927,52.601,3.484z"/>
<path d="M25.003,10.682h33.515c1.105,0,1.359-0.583,0.568-1.302s-2.328-1.302-3.432-1.302H22.399c-1.105,0-1.417,0.583-0.698,1.302
	S23.899,10.682,25.003,10.682z"/>
<path d="M11.165,37.399c0.757-0.557,1.205-1.122,0.823-1.271c-0.226-0.088-0.47-0.136-0.725-0.136c-0.533,0-1.013,0.214-1.381,0.557
	c-0.423,0.394-0.694,0.961-0.694,1.598c0,0.159,0.017,0.313,0.049,0.462c0.054,0.251,0.25,0.315,0.39,0.169
	c0.084-0.088,0.17-0.175,0.255-0.262C10.28,38.109,10.709,37.735,11.165,37.399z"/>
<path d="M19.755,36.858c-0.637-0.198-1.174-0.365-1.174-0.468v-0.187v-0.374c0,0,0-0.218,0-0.487s0.178-0.487,0.398-0.487h0.398
	c0.264,0,0.478-0.282,0.478-0.63s-0.214-0.63-0.478-0.63h-4.702c-0.264,0-0.478,0.282-0.478,0.63s0.214,0.63,0.478,0.63
	c0,0,0.178,0,0.398,0s0.398,0.218,0.398,0.487v0.487v0.374c0,0,0,0.084,0,0.187s-0.514,0.267-1.125,0.453
	c-0.372,0.113-0.733,0.249-1.083,0.407c-0.132,0.059-0.255,0.134-0.383,0.199c-1.095,0.556-2.071,1.313-2.859,2.241
	c-0.049,0.058-0.093,0.122-0.141,0.181c-1.272,1.576-2.04,3.575-2.04,5.757c0,5.073,4.112,9.185,9.185,9.185
	c1.22,0,2.382-0.243,3.447-0.675c1.371-0.556,2.575-1.433,3.523-2.538c1.378-1.606,2.215-3.689,2.215-5.971
	c0-2.345-0.884-4.479-2.33-6.102c-0.833-0.935-1.85-1.702-3-2.234C20.519,37.124,20.142,36.978,19.755,36.858z M23.882,49.772
	c-0.969,1.597-2.475,2.828-4.27,3.442c-0.812,0.278-1.68,0.435-2.585,0.435c-4.423,0-8.022-3.598-8.022-8.022
	c0-1.306,0.32-2.537,0.877-3.628c0.681-1.336,1.724-2.452,3-3.227c1.212-0.735,2.627-1.167,4.145-1.167
	c1.397,0,2.71,0.36,3.855,0.991c1.237,0.681,2.269,1.682,3,2.887c0.735,1.211,1.167,2.627,1.167,4.144S24.617,48.561,23.882,49.772z
	"/>
<path d="M21.465,46.298v-0.302v-0.737c0,0,0-0.148,0-0.33s0.447-0.33,0.997-0.33s0.948-0.349,0.831-0.768
	c-0.071-0.254-0.156-0.502-0.258-0.742c-0.145-0.343-0.329-0.664-0.528-0.974c-0.063-0.098-0.13-0.192-0.198-0.286
	c-0.158-0.217-0.328-0.423-0.511-0.619c-0.028-0.031-0.054-0.064-0.079-0.098c-0.042-0.055-0.095-0.11-0.115-0.124
	c-0.012-0.009-0.024-0.018-0.034-0.028c-0.216-0.209-0.445-0.405-0.688-0.584c-0.07-0.052-0.137-0.107-0.209-0.156
	c-0.173-0.117-0.353-0.226-0.538-0.327c-0.236-0.123-0.443-0.219-0.655-0.306c-0.055-0.022-0.112-0.041-0.168-0.061
	c-0.244-0.091-0.494-0.169-0.751-0.231c-0.049-0.012-0.096-0.027-0.146-0.037c-0.288-0.062-0.584-0.103-0.884-0.126
	c-0.167-0.013-0.334-0.026-0.505-0.026c-0.258,0-0.511,0.019-0.761,0.048c-0.078,0.009-0.155,0.024-0.232,0.035
	c-0.172,0.026-0.343,0.058-0.511,0.098c-0.084,0.02-0.167,0.041-0.25,0.064c-0.165,0.046-0.327,0.1-0.487,0.158
	c-0.071,0.026-0.143,0.049-0.213,0.078c-0.213,0.086-0.42,0.183-0.621,0.29c-0.219,0.116-0.398,0.225-0.572,0.342
	c-0.172,0.116-0.339,0.241-0.499,0.373c-0.081,0.067-0.144,0.151-0.222,0.222c-0.083,0.065-0.17,0.127-0.244,0.202
	c-0.098,0.098-0.181,0.211-0.273,0.315c-0.073,0.083-0.148,0.163-0.216,0.25c-0.234,0.295-0.452,0.604-0.633,0.938
	c-0.2,0.367-0.365,0.756-0.491,1.162c-0.192,0.615-0.296,1.268-0.296,1.946c0,0.225,0.011,0.448,0.034,0.667
	c0.067,0.658,0.231,1.286,0.479,1.872c0.149,0.352,0.336,0.681,0.542,0.998c0.061,0.094,0.127,0.181,0.193,0.271
	c0.164,0.226,0.34,0.441,0.531,0.644c0.047,0.05,0.083,0.111,0.132,0.16c0.029,0.029,0.066,0.051,0.096,0.079
	c0.271,0.261,0.556,0.506,0.869,0.717c0.173,0.117,0.353,0.226,0.538,0.327c0.235,0.122,0.443,0.219,0.655,0.306
	c0.07,0.028,0.142,0.052,0.213,0.078c0.16,0.059,0.322,0.112,0.487,0.158c0.083,0.023,0.166,0.044,0.25,0.064
	c0.083,0.02,0.166,0.037,0.25,0.053c0.139,0.027,0.254-0.41,0.254-0.97s0.141-1.013,0.316-1.013h0.316c0.017,0,0.737,0,0.737,0
	s0.141,0,0.316,0s0.316,0.327,0.316,0.731V51.5c0,0,0,0.124,0,0.277s0.088,0.272,0.195,0.256c0.065-0.009,0.129-0.021,0.193-0.035
	c0.02-0.004,0.038-0.01,0.058-0.015c0.03-0.007,0.058-0.016,0.088-0.023c0.257-0.062,0.507-0.139,0.751-0.231
	c0.056-0.021,0.113-0.039,0.168-0.061c0.213-0.086,0.42-0.183,0.621-0.29c0.219-0.116,0.399-0.225,0.572-0.343
	c0.313-0.211,0.598-0.456,0.869-0.717c0.03-0.029,0.067-0.05,0.096-0.079c0.049-0.049,0.085-0.109,0.132-0.16
	c0.191-0.203,0.367-0.417,0.531-0.644c0.065-0.09,0.132-0.177,0.193-0.271c0.206-0.317,0.393-0.646,0.542-0.998
	c0.104-0.247,0.192-0.502,0.264-0.764c0.036-0.131,0.068-0.264,0.096-0.399c0.046-0.222-0.376-0.405-0.929-0.405
	S21.465,46.464,21.465,46.298z M17.027,45.324c0,0,0,0.062,0,0.138s-0.082,0.138-0.184,0.138H16.66h-0.349h-3.737h-0.627
	c0,0-0.068,0-0.152,0s-0.152-0.205-0.125-0.456c0.017-0.152,0.04-0.303,0.065-0.452c0.188-1.101,0.7-2.089,1.448-2.854
	c0.53-0.542,1.173-0.973,1.89-1.254c1.028-0.403,1.954-0.318,1.954-0.257v0.111V45.324z"/>
</svg>
