<svg xmlns="http://www.w3.org/2000/svg" xmlns:xlink="http://www.w3.org/1999/xlink" version="1.1" id="Layer_1" x="0px" y="0px" width="100px" height="100px" viewBox="0 0 100 100" enable-background="new 0 0 100 100" xml:space="preserve">
<g id="Captions">
</g>
<g>
	<path d="M76.645,33.453c-4.651,0-7.242-1.521-9.134-2.632c-1.479-0.869-2.373-1.393-4.576-1.393c-2.201,0-3.093,0.524-4.571,1.393   c-1.891,1.111-4.48,2.633-9.129,2.633c-4.65,0-7.24-1.521-9.132-2.633c-1.479-0.868-2.371-1.393-4.573-1.393   c-2.201,0-3.093,0.524-4.57,1.393c-1.891,1.111-4.48,2.633-9.13,2.633c-4.648,0-7.238-1.522-9.128-2.633   c-1.477-0.868-2.369-1.392-4.568-1.392v-9c4.649,0,7.238,1.522,9.129,2.633c1.477,0.868,2.369,1.392,4.568,1.392   c2.201,0,3.093-0.524,4.57-1.393c1.891-1.111,4.48-2.633,9.13-2.633c4.65,0,7.241,1.521,9.132,2.633   c1.479,0.868,2.371,1.393,4.573,1.393c2.201,0,3.092-0.524,4.57-1.393c1.892-1.111,4.481-2.633,9.131-2.633   c4.65,0,7.241,1.521,9.133,2.632c1.479,0.869,2.373,1.393,4.577,1.393s3.098-0.524,4.577-1.393   c1.892-1.111,4.482-2.632,9.133-2.632v9c-2.203,0-3.097,0.524-4.576,1.393C83.887,31.932,81.296,33.453,76.645,33.453z"/>
</g>
<g>
	<path d="M76.645,33.453c-4.651,0-7.242-1.521-9.134-2.632c-1.479-0.869-2.373-1.393-4.576-1.393c-2.201,0-3.093,0.524-4.571,1.393   c-1.891,1.111-4.48,2.633-9.129,2.633c-4.65,0-7.24-1.521-9.132-2.633c-1.479-0.868-2.371-1.393-4.573-1.393   c-2.201,0-3.093,0.524-4.57,1.393c-1.891,1.111-4.48,2.633-9.13,2.633c-4.648,0-7.238-1.522-9.128-2.633   c-1.477-0.868-2.369-1.392-4.568-1.392v-9c4.649,0,7.238,1.522,9.129,2.633c1.477,0.868,2.369,1.392,4.568,1.392   c2.201,0,3.093-0.524,4.57-1.393c1.891-1.111,4.48-2.633,9.13-2.633c4.65,0,7.241,1.521,9.132,2.633   c1.479,0.868,2.371,1.393,4.573,1.393c2.201,0,3.092-0.524,4.57-1.393c1.892-1.111,4.481-2.633,9.131-2.633   c4.65,0,7.241,1.521,9.133,2.632c1.479,0.869,2.373,1.393,4.577,1.393s3.098-0.524,4.577-1.393   c1.892-1.111,4.482-2.632,9.133-2.632v9c-2.203,0-3.097,0.524-4.576,1.393C83.887,31.932,81.296,33.453,76.645,33.453z"/>
</g>
<g>
	<path d="M76.645,51.212c-4.651,0-7.242-1.521-9.134-2.632c-1.479-0.869-2.373-1.393-4.576-1.393c-2.201,0-3.093,0.524-4.571,1.393   c-1.891,1.111-4.48,2.633-9.129,2.633c-4.65,0-7.24-1.521-9.132-2.633c-1.479-0.868-2.371-1.393-4.573-1.393   c-2.201,0-3.093,0.524-4.57,1.393c-1.891,1.111-4.48,2.633-9.13,2.633c-4.648,0-7.238-1.522-9.128-2.633   c-1.477-0.868-2.369-1.392-4.568-1.392v-9c4.649,0,7.238,1.522,9.129,2.633c1.477,0.868,2.369,1.392,4.568,1.392   c2.201,0,3.093-0.524,4.57-1.393c1.891-1.111,4.48-2.633,9.13-2.633c4.65,0,7.241,1.521,9.132,2.633   c1.479,0.868,2.371,1.393,4.573,1.393c2.201,0,3.092-0.524,4.57-1.393c1.892-1.111,4.481-2.633,9.131-2.633   c4.65,0,7.241,1.521,9.133,2.632c1.479,0.869,2.373,1.393,4.577,1.393s3.098-0.524,4.577-1.393   c1.892-1.111,4.482-2.632,9.133-2.632v9c-2.203,0-3.097,0.524-4.576,1.393C83.887,49.69,81.296,51.212,76.645,51.212z"/>
</g>
<g>
	<path d="M76.645,51.212c-4.651,0-7.242-1.521-9.134-2.632c-1.479-0.869-2.373-1.393-4.576-1.393c-2.201,0-3.093,0.524-4.571,1.393   c-1.891,1.111-4.48,2.633-9.129,2.633c-4.65,0-7.24-1.521-9.132-2.633c-1.479-0.868-2.371-1.393-4.573-1.393   c-2.201,0-3.093,0.524-4.57,1.393c-1.891,1.111-4.48,2.633-9.13,2.633c-4.648,0-7.238-1.522-9.128-2.633   c-1.477-0.868-2.369-1.392-4.568-1.392v-9c4.649,0,7.238,1.522,9.129,2.633c1.477,0.868,2.369,1.392,4.568,1.392   c2.201,0,3.093-0.524,4.57-1.393c1.891-1.111,4.48-2.633,9.13-2.633c4.65,0,7.241,1.521,9.132,2.633   c1.479,0.868,2.371,1.393,4.573,1.393c2.201,0,3.092-0.524,4.57-1.393c1.892-1.111,4.481-2.633,9.131-2.633   c4.65,0,7.241,1.521,9.133,2.632c1.479,0.869,2.373,1.393,4.577,1.393s3.098-0.524,4.577-1.393   c1.892-1.111,4.482-2.632,9.133-2.632v9c-2.203,0-3.097,0.524-4.576,1.393C83.887,49.69,81.296,51.212,76.645,51.212z"/>
</g>
<g>
	<path d="M76.645,68.971c-4.651,0-7.242-1.521-9.134-2.633c-1.479-0.868-2.373-1.393-4.576-1.393c-2.201,0-3.093,0.524-4.571,1.393   c-1.891,1.111-4.48,2.633-9.129,2.633c-4.65,0-7.24-1.521-9.132-2.633c-1.479-0.868-2.371-1.393-4.573-1.393   c-2.201,0-3.093,0.524-4.57,1.393c-1.891,1.111-4.48,2.633-9.13,2.633c-4.648,0-7.238-1.521-9.128-2.633   c-1.477-0.868-2.369-1.393-4.568-1.393v-9c4.649,0,7.238,1.522,9.129,2.633c1.477,0.868,2.369,1.393,4.568,1.393   c2.201,0,3.093-0.524,4.57-1.393c1.891-1.111,4.48-2.633,9.13-2.633c4.65,0,7.241,1.521,9.132,2.633   c1.479,0.868,2.371,1.393,4.573,1.393c2.201,0,3.092-0.524,4.57-1.393c1.892-1.111,4.481-2.633,9.131-2.633   c4.65,0,7.241,1.521,9.133,2.632c1.479,0.869,2.373,1.394,4.577,1.394s3.098-0.524,4.577-1.394c1.892-1.11,4.482-2.632,9.133-2.632   v9c-2.203,0-3.097,0.524-4.576,1.393C83.887,67.449,81.296,68.971,76.645,68.971z"/>
</g>
<g>
	<path d="M76.645,68.971c-4.651,0-7.242-1.521-9.134-2.633c-1.479-0.868-2.373-1.393-4.576-1.393c-2.201,0-3.093,0.524-4.571,1.393   c-1.891,1.111-4.48,2.633-9.129,2.633c-4.65,0-7.24-1.521-9.132-2.633c-1.479-0.868-2.371-1.393-4.573-1.393   c-2.201,0-3.093,0.524-4.57,1.393c-1.891,1.111-4.48,2.633-9.13,2.633c-4.648,0-7.238-1.521-9.128-2.633   c-1.477-0.868-2.369-1.393-4.568-1.393v-9c4.649,0,7.238,1.522,9.129,2.633c1.477,0.868,2.369,1.393,4.568,1.393   c2.201,0,3.093-0.524,4.57-1.393c1.891-1.111,4.48-2.633,9.13-2.633c4.65,0,7.241,1.521,9.132,2.633   c1.479,0.868,2.371,1.393,4.573,1.393c2.201,0,3.092-0.524,4.57-1.393c1.892-1.111,4.481-2.633,9.131-2.633   c4.65,0,7.241,1.521,9.133,2.632c1.479,0.869,2.373,1.394,4.577,1.394s3.098-0.524,4.577-1.394c1.892-1.11,4.482-2.632,9.133-2.632   v9c-2.203,0-3.097,0.524-4.576,1.393C83.887,67.449,81.296,68.971,76.645,68.971z"/>
</g>
<g>
	<path d="M76.645,86.729c-4.651,0-7.242-1.521-9.134-2.633c-1.479-0.868-2.373-1.393-4.576-1.393c-2.201,0-3.093,0.524-4.571,1.393   c-1.891,1.111-4.48,2.633-9.129,2.633c-4.65,0-7.24-1.521-9.132-2.633c-1.479-0.868-2.371-1.393-4.573-1.393   c-2.201,0-3.093,0.524-4.57,1.393c-1.891,1.111-4.48,2.633-9.13,2.633c-4.648,0-7.238-1.521-9.128-2.633   c-1.477-0.868-2.369-1.393-4.568-1.393v-9c4.649,0,7.238,1.522,9.129,2.633c1.477,0.868,2.369,1.393,4.568,1.393   c2.201,0,3.093-0.524,4.57-1.393c1.891-1.111,4.48-2.633,9.13-2.633c4.65,0,7.241,1.521,9.132,2.633   c1.479,0.868,2.371,1.393,4.573,1.393c2.201,0,3.092-0.524,4.57-1.393c1.892-1.111,4.481-2.633,9.131-2.633   c4.65,0,7.241,1.521,9.133,2.632c1.479,0.869,2.373,1.394,4.577,1.394s3.098-0.524,4.577-1.394c1.892-1.11,4.482-2.632,9.133-2.632   v9c-2.203,0-3.097,0.524-4.576,1.393C83.887,85.208,81.296,86.729,76.645,86.729z"/>
</g>
<g>
	<path d="M76.645,86.729c-4.651,0-7.242-1.521-9.134-2.633c-1.479-0.868-2.373-1.393-4.576-1.393c-2.201,0-3.093,0.524-4.571,1.393   c-1.891,1.111-4.48,2.633-9.129,2.633c-4.65,0-7.24-1.521-9.132-2.633c-1.479-0.868-2.371-1.393-4.573-1.393   c-2.201,0-3.093,0.524-4.57,1.393c-1.891,1.111-4.48,2.633-9.13,2.633c-4.648,0-7.238-1.521-9.128-2.633   c-1.477-0.868-2.369-1.393-4.568-1.393v-9c4.649,0,7.238,1.522,9.129,2.633c1.477,0.868,2.369,1.393,4.568,1.393   c2.201,0,3.093-0.524,4.57-1.393c1.891-1.111,4.48-2.633,9.13-2.633c4.65,0,7.241,1.521,9.132,2.633   c1.479,0.868,2.371,1.393,4.573,1.393c2.201,0,3.092-0.524,4.57-1.393c1.892-1.111,4.481-2.633,9.131-2.633   c4.65,0,7.241,1.521,9.133,2.632c1.479,0.869,2.373,1.394,4.577,1.394s3.098-0.524,4.577-1.394c1.892-1.11,4.482-2.632,9.133-2.632   v9c-2.203,0-3.097,0.524-4.576,1.393C83.887,85.208,81.296,86.729,76.645,86.729z"/>
</g>
</svg>